<?xml version="1.0" encoding="UTF-8"?>
<svg xmlns="http://www.w3.org/2000/svg" xmlns:xlink="http://www.w3.org/1999/xlink" width="350pt" height="284.45pt" viewBox="0 0 350 284.45" version="1.1">
<defs>
<clipPath id="clip1">
  <path d="M 0 239 L 350 239 L 350 284.449219 L 0 284.449219 Z M 0 239 "/>
</clipPath>
</defs>
<g id="surface1">
<path style=" stroke:none;fill-rule:nonzero;fill:rgb(59.999084%,10.598755%,11.799622%);fill-opacity:1;" d="M 77.769531 0.00390625 L 77.769531 215.453125 L 116.308594 215.453125 L 116.308594 0.00390625 Z M 26.660156 215.460938 L 65.199219 215.460938 L 65.199219 0.00390625 L 26.660156 0.00390625 Z M 0.6875 215.460938 L 13.253906 215.460938 L 13.253906 0.00390625 L 0.6875 0.00390625 L 0.6875 215.460938 "/>
<path style=" stroke:none;fill-rule:nonzero;fill:rgb(18.399048%,60.398865%,40.39917%);fill-opacity:1;" d="M 155.269531 0.00390625 L 155.269531 215.46875 L 167.839844 215.46875 L 167.839844 0.00390625 Z M 129.292969 215.476563 L 141.859375 215.476563 L 141.859375 0.00390625 L 129.292969 0.00390625 Z M 336.75 0.00390625 L 336.75 215.476563 L 349.316406 215.476563 L 349.316406 0.00390625 Z M 310.773438 215.476563 L 323.34375 215.476563 L 323.34375 0.00390625 L 310.773438 0.00390625 L 310.773438 215.476563 "/>
<path style=" stroke:none;fill-rule:nonzero;fill:rgb(4.699707%,40.39917%,60.398865%);fill-opacity:1;" d="M 257.902344 0.00390625 L 257.902344 215.46875 L 296.441406 215.46875 L 296.441406 0.00390625 Z M 231.929688 215.476563 L 245.332031 215.476563 L 245.332031 0.00390625 L 231.929688 0.00390625 Z M 180.820313 215.476563 L 219.363281 215.476563 L 219.363281 0.00390625 L 180.820313 0.00390625 L 180.820313 215.476563 "/>
<g clip-path="url(#clip1)" clip-rule="nonzero">
<path style=" stroke:none;fill-rule:nonzero;fill:rgb(28.199768%,28.199768%,28.599548%);fill-opacity:1;" d="M 38.253906 255.3125 L 24.433594 284.449219 L 19.636719 284.449219 L 0 239.191406 L 11.800781 239.191406 L 22.324219 263.882813 L 33.808594 239.191406 L 42.761719 239.191406 L 54.246094 263.882813 L 64.703125 239.191406 L 76.503906 239.191406 L 56.929688 284.449219 L 52.132813 284.449219 L 38.253906 255.3125 M 93.074219 239.191406 L 93.074219 283.875 L 81.941406 283.875 L 81.941406 239.191406 L 93.074219 239.191406 M 140.953125 239.191406 L 126.398438 260.171875 L 146.136719 283.875 L 132.191406 283.875 L 114.503906 262.925781 L 114.503906 283.875 L 103.371094 283.875 L 103.371094 239.191406 L 114.503906 239.191406 L 114.503906 259.3125 L 128.703125 239.191406 L 140.953125 239.191406 M 162.03125 239.191406 L 162.03125 283.875 L 150.898438 283.875 L 150.898438 239.191406 L 162.03125 239.191406 M 183.460938 247.382813 L 183.460938 275.6875 L 190.71875 275.6875 C 195.433594 275.6875 199.035156 274.394531 201.53125 271.816406 C 204.023438 269.214844 205.273438 265.792969 205.273438 261.546875 C 205.273438 257.15625 204.003906 253.703125 201.46875 251.1875 C 198.949219 248.648438 195.324219 247.382813 190.59375 247.382813 L 183.460938 247.382813 M 172.328125 239.191406 L 192.03125 239.191406 C 199.644531 239.191406 205.65625 241.28125 210.070313 245.460938 C 214.503906 249.621094 216.722656 255.003906 216.722656 261.613281 C 216.722656 268.542969 214.472656 273.992188 209.972656 277.957031 C 205.496094 281.902344 199.101563 283.875 190.785156 283.875 L 172.328125 283.875 L 172.328125 239.191406 M 248.417969 267.242188 L 241.222656 249.875 L 234.664063 267.242188 L 248.417969 267.242188 M 247.523438 239.191406 L 267.355469 283.875 L 255.390625 283.875 L 251.714844 275.046875 L 231.722656 275.046875 L 228.398438 283.875 L 216.59375 283.875 L 234.601563 239.191406 L 247.523438 239.191406 M 305.09375 239.191406 L 305.09375 247.382813 L 288.910156 247.382813 L 288.910156 283.875 L 277.78125 283.875 L 277.78125 247.382813 L 261.597656 247.382813 L 261.597656 239.191406 L 305.09375 239.191406 M 331.066406 267.242188 L 323.867188 249.875 L 317.3125 267.242188 L 331.066406 267.242188 M 330.171875 239.191406 L 350 283.875 L 338.039063 283.875 L 334.359375 275.046875 L 314.371094 275.046875 L 311.042969 283.875 L 299.242188 283.875 L 317.246094 239.191406 L 330.171875 239.191406 "/>
</g>
</g>
</svg>
